<?xml version="1.0" encoding="iso-8859-1"?>
<!-- Generator: Adobe Illustrator 18.0.0, SVG Export Plug-In . SVG Version: 6.00 Build 0)  -->
<!DOCTYPE svg PUBLIC "-//W3C//DTD SVG 1.1//EN" "http://www.w3.org/Graphics/SVG/1.1/DTD/svg11.dtd">
<svg version="1.1" id="Capa_1" xmlns="http://www.w3.org/2000/svg" xmlns:xlink="http://www.w3.org/1999/xlink" x="0px" y="0px"
	 viewBox="0 0 449.538 449.538" style="enable-background:new 0 0 449.538 449.538;" xml:space="preserve">
<g>
	<g>
		<path style="fill:#9A87C9;" d="M215.774,378.31c0,24.53-16.5,45.2-39.02,51.51c-4.61,1.3-9.47,1.99-14.49,1.99
			c-29.55,0-53.5-23.95-53.5-53.5c0-8.7,2.08-16.92,5.77-24.19c8.83-17.4,26.88-29.32,47.73-29.32
			C191.824,324.8,215.774,348.76,215.774,378.31z"/>
		<path style="fill:#9A87C9;" d="M340.774,378.31c0,29.55-23.95,53.5-53.51,53.5c-5.02,0-9.88-0.69-14.48-1.99
			c-22.52-6.31-39.02-26.98-39.02-51.51c0-29.55,23.95-53.51,53.5-53.51c20.86,0,38.93,11.93,47.75,29.34
			C338.694,361.4,340.774,369.62,340.774,378.31z"/>
	</g>
	<path style="fill:#FCE7A7;" d="M251.699,401.77v20.834c0,0.483-0.009,0.966-0.045,1.449c-0.206,4.016-1.288,7.8-3.086,11.155
		c-4.508,8.516-13.472,14.33-23.795,14.33c-10.332,0-19.295-5.814-23.804-14.33c-1.798-3.354-2.88-7.138-3.086-11.155
		c-0.036-0.483-0.045-0.966-0.045-1.449V401.77H251.699z"/>
	<g>
		<path style="fill:#E5CF98;" d="M160.236,304.037c0,20.59-16.708,37.298-37.298,37.298c-6.606,0-12.805-1.728-18.171-4.736
			c-11.403-6.362-19.127-18.578-19.127-32.562c0-12.196,5.854-23.029,14.94-29.838c6.22-4.675,13.964-7.46,22.358-7.46
			C143.528,266.739,160.236,283.447,160.236,304.037z"/>
		<path style="fill:#E5CF98;" d="M363.901,304.037c0,20.59-16.708,37.298-37.298,37.298c-1.524,0-3.029-0.102-4.512-0.285
			c-18.456-2.215-32.786-17.948-32.786-37.013c0-20.59,16.708-37.298,37.298-37.298c0.346,0,0.671,0,0.996,0.02
			C347.742,267.288,363.901,283.793,363.901,304.037z"/>
	</g>
	<path style="fill:#E5CF98;" d="M251.699,401.77v20.834c0,0.483-0.009,0.966-0.045,1.449c-8.614,2.102-17.622,3.211-26.881,3.211
		c-9.267,0-18.275-1.109-26.89-3.211c-0.036-0.483-0.045-0.966-0.045-1.449V401.77H251.699z"/>
	<path style="fill:#8777B7;" d="M215.774,378.31c0,24.53-16.5,45.2-39.02,51.51c-22.4-10.47-40.82-28.04-52.36-49.81
		c-4.29-8.1-7.63-16.78-9.86-25.89c8.83-17.4,26.88-29.32,47.73-29.32C191.824,324.8,215.774,348.76,215.774,378.31z"/>
	<path style="fill:#8777B7;" d="M335.014,354.14c-2.24,9.1-5.58,17.78-9.87,25.87c-11.55,21.78-29.96,39.35-52.36,49.81
		c-22.52-6.31-39.02-26.98-39.02-51.51c0-29.55,23.95-53.51,53.5-53.51C308.124,324.8,326.194,336.73,335.014,354.14z"/>
	<path style="fill:#FCE7A7;" d="M338.294,269.51v38.41c0,19.17-4.75,37.24-13.15,53.09c-19.06,35.95-56.85,60.44-100.37,60.44
		s-81.32-24.49-100.38-60.44c-8.39-15.85-13.15-33.92-13.15-53.09v-38.41c0-3.17,0.14-6.31,0.39-9.42
		c1.83-22.33,10.13-42.83,23.02-59.62c27.44-0.1,58.09,0.29,90.11,0.07c32.02,0.22,62.67-0.17,90.12-0.07
		c12.89,16.79,21.19,37.3,23.02,59.62C338.154,263.2,338.294,266.34,338.294,269.51z"/>
	<path style="fill:#E5CF98;" d="M338.294,269.51v18.15c-32.31,9.47-71.37,15.86-113.53,15.66c-42.15,0.2-81.21-6.19-113.52-15.66
		v-18.15c0-3.17,0.14-6.31,0.39-9.42c1.83-22.33,10.13-42.83,23.02-59.62c27.44-0.1,58.09,0.29,90.11,0.07
		c32.02,0.22,62.67-0.17,90.12-0.07c12.89,16.79,21.19,37.3,23.02,59.62C338.154,263.2,338.294,266.34,338.294,269.51z"/>
	<g>
		<path style="fill:#FFFFFF;" d="M168.875,325.48c-12.608,0-22.867-10.258-22.867-22.867c0-12.608,10.258-22.867,22.867-22.867
			c12.608,0,22.867,10.258,22.867,22.867C191.741,315.222,181.483,325.48,168.875,325.48z"/>
		<path style="fill:#FFFFFF;" d="M280.667,325.48c-12.608,0-22.867-10.258-22.867-22.867c0-12.608,10.258-22.867,22.867-22.867
			c12.608,0,22.867,10.258,22.867,22.867C303.533,315.222,293.275,325.48,280.667,325.48z"/>
		<path style="fill:#56BF8D;" d="M176.7,302.613c-4.322,0-7.826-3.504-7.826-7.826c0-2.701,1.368-5.082,3.449-6.488
			c-1.108-0.266-2.259-0.423-3.449-0.423c-8.139,0-14.736,6.598-14.736,14.736c0,8.139,6.598,14.736,14.736,14.736
			s14.736-6.598,14.736-14.736c0-1.19-0.156-2.341-0.423-3.449C181.782,301.245,179.401,302.613,176.7,302.613z"/>
		<path style="fill:#56BF8D;" d="M288.492,302.613c-4.322,0-7.826-3.504-7.826-7.826c0-2.701,1.368-5.082,3.449-6.488
			c-1.108-0.266-2.259-0.423-3.449-0.423c-8.139,0-14.736,6.598-14.736,14.736c0,8.139,6.598,14.736,14.736,14.736
			s14.736-6.598,14.736-14.736c0-1.19-0.156-2.341-0.423-3.449C293.574,301.245,291.193,302.613,288.492,302.613z"/>
	</g>
	<path style="fill:none;stroke:#EA535E;stroke-width:6;stroke-linecap:round;stroke-miterlimit:10;" d="M205.907,341.493
		c2.555,7.979,10.04,13.765,18.859,13.765s16.304-5.786,18.859-13.765"/>
	<polygon style="fill:#E5CF98;" points="209.27,320.907 224.769,306.868 240.268,320.907 	"/>
	<path style="fill:#9A87C9;" d="M154.774,263.8c-13.18,0.44-23.18,9.01-30.26,18.48c-9.02,12.09-13.27,25.64-13.27,25.64
		c-28.48-4.49-36.93-27.97-39.36-43.65c-1.29-8.29-0.9-14.4-0.9-14.4L154.774,263.8z"/>
	<path style="fill:#9A87C9;" d="M377.654,264.27c-2.43,15.68-10.88,39.16-39.36,43.65c0,0-4.25-13.55-13.28-25.64
		c-7.07-9.47-17.07-18.04-30.25-18.48l83.79-13.93C378.554,249.87,378.944,255.98,377.654,264.27z"/>
	<path style="fill:#8777B7;" d="M70.984,249.87l83.79,13.93c-13.18,0.44-23.18,9.01-30.26,18.48
		c-19.93-5.02-37.72-11.26-52.63-18.01C70.594,255.98,70.984,249.87,70.984,249.87z"/>
	<path style="fill:#8777B7;" d="M377.654,264.27c-14.91,6.75-32.7,12.99-52.64,18.01c-7.07-9.47-17.07-18.04-30.25-18.48
		l83.79-13.93C378.554,249.87,378.944,255.98,377.654,264.27z"/>
	<path style="fill:#FCD6EC;" d="M431.044,199.576c3.978,13.288-15.22,33.337-52.488,50.297
		c-37.005,16.911-92.08,30.735-153.787,30.45c-61.707,0.285-116.782-13.539-153.787-30.449
		c-37.268-16.96-56.466-37.008-52.488-50.297c9.148-27.281,100.22-21.305,206.275-22.033
		C330.825,178.273,421.896,172.295,431.044,199.576z"/>
	<path style="fill:#EFCBE2;" d="M306.274,232.49c-4.64,1.37-9.32,2.62-14.01,3.74c-22.18,5.34-44.84,8.01-67.49,8.01
		c-22.67,0-45.32-2.67-67.5-8.01c-4.69-1.12-9.36-2.37-14.01-3.74L224.764,0L306.274,232.49z"/>
	<path style="fill:#FCCAE5;" d="M292.264,236.23c-22.18,5.34-44.84,8.01-67.49,8.01c-22.67,0-45.32-2.67-67.5-8.01L224.764,0
		L292.264,236.23z"/>
	<polygon style="fill:#E591C5;" points="228.226,149.775 219.077,138.739 204.799,140.019 212.467,127.908 206.837,114.724 
		220.726,118.275 231.524,108.847 232.439,123.153 244.743,130.509 231.42,135.8 	"/>
	<polygon style="fill:#E591C5;" points="270.453,218.547 256.327,216.103 246.306,226.354 244.265,212.165 231.42,205.802 
		244.283,199.476 246.365,185.293 256.357,195.573 270.489,193.17 263.8,205.849 	"/>
	<polygon style="fill:#E591C5;" points="203.764,226.533 191.358,219.351 178.408,225.5 181.405,211.481 171.555,201.065 
		185.814,199.583 192.676,186.997 198.492,200.1 212.582,202.737 201.918,212.317 	"/>
</g>
<g>
</g>
<g>
</g>
<g>
</g>
<g>
</g>
<g>
</g>
<g>
</g>
<g>
</g>
<g>
</g>
<g>
</g>
<g>
</g>
<g>
</g>
<g>
</g>
<g>
</g>
<g>
</g>
<g>
</g>
</svg>
