<?xml version="1.0" encoding="iso-8859-1"?>
<!-- Uploaded to: SVG Repo, www.svgrepo.com, Generator: SVG Repo Mixer Tools -->
<svg height="800px" width="800px" version="1.1" id="Layer_1" xmlns="http://www.w3.org/2000/svg" xmlns:xlink="http://www.w3.org/1999/xlink" 
	 viewBox="0 0 455.998 455.998" xml:space="preserve">
<g transform="translate(0 -1020.36)">
	<g shape-rendering="auto" image-rendering="auto" color-rendering="auto" color-interpolation="sRGB">
		<path style="fill:#464C63;" d="M124.01,1020.36c-4.419-0.037-8.031,3.516-8.067,7.934c-0.002,0.272,0.009,0.545,0.035,0.816
			l15.282,167.238H92.101c-4.436-0.063-8.083,3.48-8.146,7.916c-0.063,4.434,3.481,8.082,7.916,8.145
			c0.077,0.002,0.153,0.002,0.23,0h15.846v170.52l68.034,93.43h104.068l67.911-93.43v-170.52h15.938
			c4.436,0.063,8.083-3.48,8.146-7.916c0.063-4.434-3.481-8.082-7.916-8.145c-0.077-0.002-0.153-0.002-0.23,0h-39.127
			l15.156-167.238c0.414-4.399-2.816-8.301-7.216-8.715c-0.229-0.021-0.46-0.033-0.69-0.035H124.01z"/>
		<path style="fill:#2ECC71;" d="M132.761,1036.423H323.27l-10.22,111.961h-47.564c-2.805-4.68-7.68-8.031-13.439-8.031h-48.065
			c-5.757,0-10.633,3.35-13.438,8.031h-47.596L132.761,1036.423z"/>
		<path style="fill:#FCD116;" d="M203.982,1156.413h48.065v7.906v40.061h-48.065c0.001-0.08,0.001-0.16,0-0.24L203.982,1156.413z"/>
		<g>
			<path style="fill:#9677A7;" d="M144.417,1164.319h43.596v32.031h-40.69L144.417,1164.319z"/>
			<path style="fill:#9677A7;" d="M267.985,1164.319h43.628l-2.938,32.031h-40.69L267.985,1164.319z"/>
		</g>
		<path style="fill:#FF883E;" d="M124.01,1212.411h8.031v106.525v69.869l-8.031-11.061V1212.411z"/>
		<path style="fill:#FAC692;" d="M147.979,1212.411h42.565c2.805,4.676,7.684,8.031,13.438,8.031h48.065
			c5.756,0,10.633-3.355,13.439-8.031h42.533v101.43l-36.127,50.561h-87.755l-36.159-50.561V1212.411z"/>
		<g>
			<path style="fill:#FF883E;" d="M323.988,1212.411h8.032v165.332l-8.032,11.031v-69.838V1212.411z"/>
			<path style="fill:#FF883E;" d="M147.979,1341.276l23.971,33.592v68.809l-23.971-32.967V1341.276z"/>
			<path style="fill:#FF883E;" d="M308.019,1341.307v69.432l-23.971,32.967v-68.838L308.019,1341.307z"/>
			<path style="fill:#FF883E;" d="M188.013,1380.337h32.032v80.088h-32.032V1380.337z"/>
			<path style="fill:#FF883E;" d="M235.984,1380.337h32.002v80.088h-32.002L235.984,1380.337z"/>
		</g>
		<path style="fill:#D6B31E;" d="M203.983,1156.413v47.715c0.001,0.086,0.001,0.17,0,0.256h7.314c0.001-0.086,0.001-0.17,0-0.256
			v-47.715H203.983z"/>
		<path style="fill:#464C63;" d="M195.999,1172.378v16h32v-16H195.999z"/>
	</g>
	<g>
		<path style="fill:#464C63;" d="M196.003,1252.376c-0.001,4.418-3.582,7.998-8,7.998s-8-3.58-8-7.998c0-4.418,3.581-8,8-8
			c0,0,0,0,0.001,0C192.421,1244.376,196.003,1247.958,196.003,1252.376L196.003,1252.376z"/>
		<path style="fill:#464C63;" d="M276.007,1252.376c-0.001,4.418-3.582,7.998-8,7.998c-4.418,0-8-3.58-8-7.998c0-4.418,3.581-8,8-8
			c0,0,0,0,0.001,0C272.426,1244.376,276.007,1247.958,276.007,1252.376L276.007,1252.376z"/>
		<path style="fill:#464C63;" d="M236.005,1292.372c0,4.418-3.581,8-8,8c0,0,0,0-0.001,0c-4.419,0-8-3.582-8-8l0,0
			c0-4.418,3.581-8,8-8c0,0,0,0,0.001,0C232.424,1284.372,236.005,1287.954,236.005,1292.372L236.005,1292.372z"/>
		
			<path shape-rendering="auto" image-rendering="auto" color-rendering="auto" color-interpolation="sRGB" style="fill:#464C63;" d="
			M259.468,1316.378c-2.351,0.16-4.512,1.35-5.906,3.25c-6.079,8.016-15.503,12.725-25.531,12.75
			c-10.029,0-19.474-4.641-25.594-12.625c-2.712-3.498-7.745-4.135-11.243-1.422c-3.47,2.689-4.128,7.672-1.476,11.172
			c9.141,11.926,23.33,18.914,38.344,18.875c15.014,0,29.169-7.119,38.25-19.094c2.719-3.482,2.1-8.512-1.383-11.23
			C263.377,1316.843,261.433,1316.245,259.468,1316.378z"/>
	</g>
	<g shape-rendering="auto" image-rendering="auto" color-rendering="auto" color-interpolation="sRGB">
		<path style="fill:#31AF66;" d="M132.761,1036.422l10.188,111.962h7.312l-10.188-111.962H132.761z M252.048,1140.352
			c5.759,0,10.634,3.35,13.439,8.031h7.312c-2.805-4.68-7.679-8.031-13.438-8.031H252.048z"/>
		<g>
			<path style="fill:#846B92;" d="M144.418,1164.319l2.906,32.029h7.314l-2.907-32.029H144.418z"/>
			<path style="fill:#846B92;" d="M267.986,1164.319v32.029h7.314v-32.029H267.986z"/>
		</g>
		<path style="fill:#D8793E;" d="M124.011,1212.411v165.332l8.031,11.061v-5.469l-4.063-5.592v-165.332H124.011z"/>
		<path style="fill:#D4AA81;" d="M147.98,1212.411v101.43l36.159,50.559h7.312l-36.157-50.559v-101.43H147.98z M265.487,1212.411
			c-2.807,4.676-7.684,8.031-13.439,8.031h7.314c5.755,0,10.631-3.355,13.438-8.031H265.487z"/>
		<g>
			<path style="fill:#D8793E;" d="M323.989,1212.411v106.523v69.84l3.189-4.377v-65.465v-106.523L323.989,1212.411z"/>
			<path style="fill:#D8793E;" d="M147.98,1341.276v69.432l23.971,32.969v-10.063l-16.657-22.906v-59.182L147.98,1341.276z"/>
			<path style="fill:#D8793E;" d="M308.02,1341.307l-23.971,33.561v68.838l7.314-10.061v-58.777l16.657-23.313V1341.307z"/>
			<path style="fill:#D8793E;" d="M188.014,1380.337v80.088h7.312v-80.088H188.014z"/>
			<path style="fill:#D8793E;" d="M235.984,1380.337v80.088h7.314v-80.088H235.984z"/>
		</g>
	</g>
</g>
</svg>