<?xml version="1.0" encoding="iso-8859-1"?>
<!-- Uploaded to: SVG Repo, www.svgrepo.com, Generator: SVG Repo Mixer Tools -->
<svg version="1.1" id="Layer_1" xmlns="http://www.w3.org/2000/svg" xmlns:xlink="http://www.w3.org/1999/xlink" 
	 viewBox="0 0 512.003 512.003" xml:space="preserve">
<polygon style="fill:#8765B8;" points="415.001,512 97.001,512 97.001,440.234 126.783,369.528 251.584,340.812 379.698,364.716 
	415.001,440.234 "/>
<rect x="204.905" y="340.817" style="fill:#F2CC7B;" width="102.185" height="171.186"/>
<g>
	<rect x="235.068" y="340.817" style="fill:#FFF7E6;" width="41.864" height="171.186"/>
	<path style="fill:#FFF7E6;" d="M353.177,316.579H158.826c-34.145,0-61.825,27.681-61.825,61.825v61.831
		c21.987-36.574,84.864-62.976,159.001-62.976s137.014,26.402,159.001,62.976v-61.831
		C415.001,344.259,387.322,316.579,353.177,316.579z"/>
</g>
<path style="fill:#A07DD2;" d="M122.738,418.888c3.592-7.757,5.611-16.39,5.611-25.5l0,0c0-33.557-27.203-60.759-60.759-60.759l0,0
	c-33.557,0-60.759,27.203-60.759,60.759l0,0c0,9.11,2.018,17.744,5.611,25.5l53.174,11.751L122.738,418.888z"/>
<rect x="36.862" y="430.643" style="fill:#74579E;" width="61.457" height="81.36"/>
<path style="fill:#F2CC7B;" d="M12.441,418.888c9.64,20.814,30.701,35.259,55.148,35.259l0,0c24.447,0,45.508-14.446,55.148-35.259
	H12.441z"/>
<path style="fill:#A07DD2;" d="M389.265,418.888c-3.592-7.757-5.611-16.39-5.611-25.5l0,0c0-33.557,27.203-60.759,60.759-60.759l0,0
	c33.557,0,60.759,27.203,60.759,60.759l0,0c0,9.11-2.018,17.744-5.611,25.5l-53.174,11.751L389.265,418.888z"/>
<rect x="413.688" y="430.643" style="fill:#74579E;" width="61.457" height="81.36"/>
<path style="fill:#F2CC7B;" d="M499.561,418.888c-9.64,20.814-30.701,35.259-55.148,35.259l0,0
	c-24.447,0-45.508-14.446-55.148-35.259H499.561z"/>
<g>
	<path style="fill:#5A4146;" d="M88.639,198.925v-31.563C88.639,75.079,163.718,0,256.002,0s167.362,75.079,167.362,167.362v31.563
		H88.639z"/>
	<path style="fill:#5A4146;" d="M423.363,216.023c1.616,54.106,24.81,70.002,24.81,70.002s-134.797,42.638-189.991,27.176h-4.362
		c-55.194,15.462-189.991-27.176-189.991-27.176s23.194-15.897,24.81-70.002L423.363,216.023L423.363,216.023z"/>
</g>
<g>
	<path style="fill:#F2B09D;" d="M399.21,153.412h-28.256v94.257l0,0c32.699,0,59.207-26.508,59.207-59.207v-4.099
		C430.161,167.269,416.303,153.412,399.21,153.412z"/>
	<path style="fill:#F2B09D;" d="M112.793,153.412h28.256v94.257l0,0c-32.699,0-59.207-26.508-59.207-59.207v-4.099
		C81.842,167.269,95.699,153.412,112.793,153.412z"/>
</g>
<path style="fill:#FFBBA8;" d="M121.773,167.362v63.125c0,74.133,60.096,134.229,134.229,134.229l0,0
	c74.133,0,134.229-60.096,134.229-134.229v-63.125c0-74.133-60.096-134.229-134.229-134.229l0,0
	C181.869,33.133,121.773,93.229,121.773,167.362z"/>
<g>
	<path style="fill:#5A4146;" d="M259.185,235.154c50.189,66.584,98.093,5.522,98.093,5.522
		c-61.554,16.198-54.045-25.034-98.093-25.034s-36.539,41.233-98.093,25.034C161.093,240.677,208.996,301.738,259.185,235.154z"/>
	<path style="fill:#5A4146;" d="M288.525,154.812c-2.024,0-4.052-0.749-5.632-2.258c-3.254-3.11-3.373-8.271-0.262-11.526
		c7.833-8.197,21.712-13.09,37.126-13.09c15.329,0,29.166,4.85,37.015,12.975c3.128,3.238,3.039,8.4-0.2,11.527
		c-3.238,3.127-8.4,3.038-11.527-0.2c-3.563-3.69-12.326-7.998-25.288-7.998c-13.024,0-21.79,4.336-25.338,8.05
		C292.818,153.968,290.673,154.812,288.525,154.812z"/>
	<path style="fill:#5A4146;" d="M223.478,154.812c-2.149,0-4.293-0.843-5.896-2.52c-3.548-3.714-12.313-8.05-25.338-8.05
		c-12.962,0-21.724,4.309-25.288,7.998c-3.129,3.238-8.29,3.327-11.527,0.2c-3.238-3.128-3.328-8.289-0.2-11.527
		c7.849-8.125,21.686-12.975,37.015-12.975c15.415,0,29.294,4.893,37.126,13.09c3.11,3.255,2.992,8.416-0.262,11.526
		C227.53,154.063,225.503,154.812,223.478,154.812z"/>
</g>
<g>
	<circle style="fill:#2B2B33;" cx="319.72" cy="175.816" r="12.624"/>
	<circle style="fill:#2B2B33;" cx="192.285" cy="175.816" r="12.624"/>
	<path style="fill:#2B2B33;" d="M230.887,302.373c-2.317,0-4.618-0.982-6.23-2.89c-2.907-3.439-2.473-8.583,0.965-11.488
		c7.501-6.338,20.049-10.122,33.565-10.122c13.516,0,26.063,3.782,33.563,10.119c3.439,2.905,3.873,8.049,0.967,11.488
		c-2.905,3.438-8.049,3.873-11.488,0.967c-3.423-2.891-11.513-6.27-23.041-6.27c-11.529,0-19.619,3.377-23.041,6.271
		C234.615,301.742,232.745,302.373,230.887,302.373z"/>
</g>
<path style="fill:#E18CAF;" d="M259.185,181.405c-12.001,0-21.729,9.728-21.729,21.729v10.291c0,12,9.728,21.729,21.729,21.729
	c12.001,0,21.729-9.728,21.729-21.729v-10.291C280.915,191.133,271.186,181.405,259.185,181.405z"/>
</svg>